<?xml version="1.0" standalone="no"?>
<!DOCTYPE svg PUBLIC "-//W3C//DTD SVG 20010904//EN"
 "http://www.w3.org/TR/2001/REC-SVG-20010904/DTD/svg10.dtd">
<svg version="1.0" xmlns="http://www.w3.org/2000/svg"
 width="613.000000pt" height="154.000000pt" viewBox="0 0 613.000000 154.000000"
 preserveAspectRatio="xMidYMid meet">

<g transform="translate(0.000000,154.000000) scale(0.100000,-0.100000)"
fill="#000000" stroke="none">
<path d="M1121 1153 c-27 -43 -48 -79 -46 -82 3 -3 235 139 254 155 2 2 -32 4
-77 4 l-81 0 -50 -77z"/>
<path d="M1222 1110 c-152 -98 -154 -100 -206 -182 l-53 -83 54 -3 c51 -3 61
1 171 65 118 67 118 67 192 172 41 57 79 110 83 118 6 10 -3 13 -40 12 -43 0
-63 -10 -201 -99z"/>
<path d="M3090 965 c0 -55 0 -55 -31 -55 -38 0 -35 -24 4 -28 l27 -3 0 -135 0
-134 40 0 40 0 0 135 0 135 45 0 c33 0 45 4 45 15 0 11 -12 15 -45 15 l-45 0
0 55 0 55 -40 0 -40 0 0 -55z"/>
<path d="M3320 815 l0 -205 40 0 40 0 0 98 c0 125 17 166 72 170 31 3 40 -1
55 -25 22 -33 22 -131 0 -213 -8 -30 -16 -61 -18 -69 -8 -29 27 -20 49 13 61
90 81 220 42 283 -13 22 -31 35 -60 43 -45 12 -71 7 -112 -22 l-28 -19 0 75 0
76 -40 0 -40 0 0 -205z"/>
<path d="M5180 815 c0 -172 2 -205 14 -205 8 0 23 14 33 30 21 36 26 37 46 6
35 -53 137 -55 184 -4 65 70 54 203 -21 249 -37 23 -114 25 -142 4 -10 -8 -22
-15 -26 -15 -5 0 -8 32 -8 70 l0 70 -40 0 -40 0 0 -205z m217 39 c26 -41 29
-141 5 -180 -24 -38 -49 -46 -90 -28 -24 10 -33 22 -42 55 -15 53 -5 120 21
153 29 37 82 36 106 0z"/>
<path d="M1799 983 l-37 -4 48 -182 47 -182 45 -3 46 -3 28 116 c15 63 33 114
38 112 6 -2 21 -54 35 -116 l24 -112 45 3 45 3 33 115 c19 63 43 146 53 183
l20 68 -27 -3 c-26 -3 -28 -9 -57 -127 -17 -69 -35 -126 -41 -128 -6 -2 -23
53 -39 127 l-28 131 -46 -3 -46 -3 -25 -122 c-14 -67 -28 -124 -32 -128 -4 -4
-10 6 -14 21 -4 16 -19 76 -33 133 -14 58 -30 105 -36 106 -5 1 -26 0 -46 -2z"/>
<path d="M4625 978 c-3 -7 -6 -44 -7 -83 l-3 -70 -75 0 -75 0 -3 78 -3 77 -44
0 -45 0 0 -185 0 -185 45 0 44 0 3 83 3 82 75 0 75 0 3 -82 3 -83 44 0 45 0 0
184 c0 182 0 184 -22 190 -36 9 -58 7 -63 -6z"/>
<path d="M1196 867 c-108 -62 -108 -62 -69 -65 65 -5 64 -3 38 -99 -14 -48
-25 -95 -25 -103 0 -8 70 55 155 140 l155 155 -50 11 c-28 7 -61 15 -73 18
-16 4 -54 -12 -131 -57z"/>
<path d="M2397 906 c-71 -26 -97 -66 -97 -148 0 -96 58 -152 156 -151 54 0
102 22 122 54 10 16 9 19 -8 19 -11 0 -20 -4 -20 -10 0 -14 -55 -40 -84 -40
-32 0 -75 38 -78 69 -3 23 -1 24 59 22 117 -4 178 54 141 134 -23 50 -121 77
-191 51z m118 -41 c14 -13 25 -36 25 -50 0 -14 -11 -37 -25 -50 -19 -20 -34
-25 -74 -25 -54 0 -67 11 -62 50 11 88 84 128 136 75z"/>
<path d="M2745 906 c-96 -44 -121 -181 -47 -259 43 -45 133 -57 163 -21 15 18
29 18 29 -1 0 -11 11 -15 40 -15 l40 0 0 150 c0 124 -3 150 -14 150 -8 0 -17
-9 -21 -19 -13 -41 -32 -45 -62 -11 -33 36 -84 47 -128 26z m120 -46 c20 -22
32 -111 21 -155 -15 -59 -84 -86 -120 -46 -10 11 -22 38 -27 60 -11 49 1 114
27 142 23 25 76 25 99 -1z"/>
<path d="M3788 908 c-72 -19 -119 -102 -104 -183 16 -82 111 -138 195 -115 40
11 91 45 91 61 0 16 -21 10 -52 -16 -16 -14 -42 -25 -58 -25 -36 0 -90 44 -90
74 0 21 3 22 63 18 97 -6 149 27 149 94 0 48 -32 80 -94 93 -55 12 -50 12
-100 -1z m112 -38 c13 -13 20 -33 20 -59 0 -52 -26 -71 -98 -71 -62 0 -71 12
-53 70 21 70 89 102 131 60z"/>
<path d="M4194 910 c-12 -4 -33 -23 -47 -41 l-25 -33 -22 37 c-12 20 -26 37
-31 37 -5 0 -9 -67 -9 -150 l0 -150 40 0 40 0 0 105 c0 128 14 165 60 165 23
0 35 -7 49 -30 l18 -31 15 23 c8 13 18 29 22 36 5 8 -4 17 -28 27 -40 17 -52
18 -82 5z"/>
<path d="M4815 868 c-10 -24 -20 -74 -22 -113 -3 -58 -1 -76 16 -101 39 -63
149 -67 187 -9 22 33 39 31 54 -5 7 -16 19 -30 26 -30 11 0 14 29 14 150 l0
150 -40 0 -40 0 0 -102 c0 -85 -4 -109 -20 -135 -24 -40 -68 -48 -99 -18 -27
27 -30 157 -5 238 4 13 -1 17 -24 17 -26 0 -32 -6 -47 -42z"/>
<path d="M1307 701 l-143 -140 -27 -97 c-15 -53 -26 -98 -24 -101 3 -2 71 90
153 204 81 114 159 223 172 241 13 17 22 32 18 32 -3 0 -70 -63 -149 -139z"/>
</g>
</svg>
